<svg version="1.1" xmlns="http://www.w3.org/2000/svg" viewBox="0 0 462.7275390625 464.6520912267297" width="462.7275390625" height="464.6520912267297">
  <!-- svg-source:excalidraw -->
  
  <defs>
    <style class="style-fonts">
      @font-face {
        font-family: "Virgil";
        src: url("https://excalidraw.com/Virgil.woff2");
      }
      @font-face {
        font-family: "Cascadia";
        src: url("https://excalidraw.com/Cascadia.woff2");
      }
      @font-face {
        font-family: "Assistant";
        src: url("https://excalidraw.com/Assistant-Regular.woff2");
      }
    </style>
    
  </defs>
  <g stroke-linecap="round"><g transform="translate(452.3607569582382 158.12549897946883) rotate(0 -221.1803784791191 0)"><path d="M0 0 C-115.63 0, -231.26 0, -442.36 0 M0 0 C-150.18 0, -300.35 0, -442.36 0" stroke="#1e1e1e" stroke-width="4" fill="none"></path></g></g><mask></mask><g stroke-linecap="round"><g transform="translate(156.84244625396605 10) rotate(0 0 222.18857540375757)"><path d="M0 0 C0 95.5, 0 190.99, 0 444.38 M0 0 C0 106.32, 0 212.64, 0 444.38" stroke="#1e1e1e" stroke-width="4" fill="none"></path></g></g><mask></mask><g stroke-linecap="round"><g transform="translate(304.4184567164557 10.274940419214545) rotate(0 0 222.18857540375757)"><path d="M0 0 C0 107.45, 0 214.91, 0 444.38 M0 0 C0 127.04, 0 254.08, 0 444.38" stroke="#1e1e1e" stroke-width="4" fill="none"></path></g></g><mask></mask><g stroke-linecap="round"><g transform="translate(452.7275390625 306.52637685507943) rotate(0 -221.1803784791191 0)"><path d="M0 0 C-139.44 0, -278.88 0, -442.36 0 M0 0 C-112.74 0, -225.48 0, -442.36 0" stroke="#1e1e1e" stroke-width="4" fill="none"></path></g></g><mask></mask></svg>